<svg width="403" height="46" viewBox="0 0 403 46" fill="none" xmlns="http://www.w3.org/2000/svg">
<path d="M64.4645 45.3728H48.673L30.5185 8.0494C29.3777 5.73389 25.8413 5.60435 24.6191 8.11417L6.56237 45.3566H0.5L20.2027 4.95666C22.7939 -0.597321 32.2948 -0.370629 35.0816 4.95666L52.1279 40.0455H55.7784L38.455 4.51947C37.7053 3.15931 37.3142 2.123 36.0594 1.02192C36.0594 1.02192 42.3336 0.325643 44.4848 4.40612L64.4645 45.3728Z" fill="#6D45FF"/>
<path d="M30.5511 15.4169L16.2426 45.3566H10.1639L26.9006 10.624C27.634 9.13428 27.471 9.11809 28.1881 10.5916L30.5511 15.4169Z" fill="#6D45FF"/>
<path d="M388.9 8.24681C390.217 6.38046 392.313 5.20733 394.598 5.07402C394.732 5.07402 394.867 5.07402 395.028 5.07402C395.592 5.07402 396.13 5.12735 396.694 5.26066C399.92 5.98054 402.285 8.78006 402.473 12.0595V12.1128C402.5 12.3528 402.5 12.5661 402.5 12.806V41.0679H397.178V12.806C397.178 12.6994 397.178 12.5661 397.151 12.4594C397.151 11.4729 396.452 10.6197 395.485 10.4064C395.324 10.3798 395.162 10.3531 395.001 10.3531C394.356 10.3531 393.765 10.6197 393.361 11.1263L393.2 11.313L382.395 34.8556C381.643 36.5087 380.433 39.4415 378.874 40.4813C378.149 40.9612 377.315 41.0945 376.455 41.0945C375.595 41.0945 374.762 40.9612 374.036 40.4813C372.477 39.4682 371.268 36.5087 370.515 34.8556L359.71 11.313L359.549 11.1263C359.146 10.6464 358.555 10.3531 357.91 10.3531C357.748 10.3531 357.587 10.3798 357.426 10.4064C356.458 10.6197 355.759 11.4729 355.759 12.4594C355.732 12.5661 355.732 12.6994 355.732 12.806V41.0679H350.411V12.806C350.411 12.5661 350.411 12.3528 350.437 12.1128V12.0595C350.626 8.78006 352.964 6.0072 356.216 5.26066C356.754 5.12735 357.318 5.07402 357.883 5.07402C358.017 5.07402 358.151 5.07402 358.313 5.07402C360.597 5.20733 362.721 6.38046 364.011 8.24681L364.333 8.72673L376.428 35.0689L388.523 8.72673L388.9 8.24681Z" fill="white"/>
<path d="M331.005 5.04734V27.8701C331.005 35.2022 324.957 41.2012 317.566 41.2012H303.67C296.278 41.2012 290.231 35.2022 290.231 27.8701V5.04734H295.553V27.8701C295.553 32.296 299.208 35.9221 303.67 35.9221H317.566C322.027 35.9221 325.683 32.296 325.683 27.8701V5.04734H331.005Z" fill="white"/>
<path d="M270.879 5.04734V41.2012H265.557V5.04734H270.879Z" fill="white"/>
<path d="M222.337 41.2012C214.946 41.2012 208.898 35.2022 208.898 27.8701V18.3784C208.898 11.0463 214.946 5.04734 222.337 5.04734H246.124V10.3264H222.337C217.876 10.3264 214.22 13.9525 214.22 18.3784V27.8701C214.22 32.296 217.876 35.9221 222.337 35.9221H246.124V41.2012H222.337Z" fill="white"/>
<path d="M152.24 41.2012V30.8563C152.24 26.4837 155.062 22.5644 159.201 21.0979C160.33 20.698 161.486 20.5114 162.668 20.5114H178.983C181.778 20.5114 184.09 18.2451 184.117 15.4722C184.117 15.4456 184.117 15.4456 184.117 15.4189C184.117 15.3922 184.117 15.3922 184.117 15.3656C184.09 12.5927 181.805 10.3264 178.983 10.3264H152.213V5.04734H178.983C180.166 5.04734 181.348 5.26064 182.45 5.63391C186.59 7.10032 189.412 11.0197 189.412 15.3922C189.412 17.2053 188.928 18.965 188.041 20.4847C186.966 22.3777 185.273 23.9241 183.203 24.8573L183.095 24.9106C183.042 24.9373 182.961 24.9639 182.907 24.9906L189.412 41.2012H183.687L177.478 25.7638H162.588C159.792 25.7638 157.481 28.0301 157.454 30.803C157.454 30.8296 157.454 30.8296 157.454 30.8563V41.2012H152.24Z" fill="white"/>
<path d="M87.0606 41.2012L98.4569 12.8593C100.392 8.06016 104.827 5.04734 110.041 5.04734C115.256 5.04734 119.717 8.0335 121.626 12.8593L133.022 41.2012H127.297L116.707 14.8057C115.578 12.0062 113.078 10.3264 110.041 10.3264C107.004 10.3264 104.504 12.0062 103.376 14.8057L92.7856 41.2012H87.0606Z" fill="white"/>
</svg>
