<svg width="353" height="200" viewBox="0 0 353 200" fill="none" xmlns="http://www.w3.org/2000/svg">
<g clip-path="url(#clip0_22933_10731)">
<path d="M127.702 82.5669C124.632 80.7704 121.295 79.875 117.68 79.875C114.065 79.875 110.722 80.7704 107.657 82.5669C104.593 84.3633 102.162 86.7882 100.372 89.8528C98.5751 92.9173 97.6797 96.2599 97.6797 99.875C97.6797 103.49 98.5751 106.833 100.372 109.897C102.162 112.962 104.593 115.392 107.657 117.183C110.722 118.974 114.065 119.875 117.68 119.875C121.295 119.875 124.637 118.98 127.702 117.183C130.766 115.392 133.197 112.962 134.988 109.897C136.779 106.833 137.68 103.49 137.68 99.875C137.68 96.2599 136.784 92.9173 134.988 89.8528C133.197 86.7882 130.766 84.3578 127.702 82.5669ZM118.892 107.116C116.634 107.116 114.821 106.471 113.447 105.186C112.496 104.297 111.879 103.212 111.59 101.955H133.169C132.947 103.779 132.418 105.498 131.595 107.116H118.892ZM111.595 97.8783C111.89 96.6381 112.502 95.5647 113.447 94.6692C114.821 93.3678 116.634 92.717 118.892 92.717H131.64C132.452 94.3355 132.963 96.0541 133.175 97.8783H111.595ZM104.142 91.9162C105.533 89.5024 107.418 87.5836 109.804 86.1709C112.19 84.7526 114.815 84.0463 117.68 84.0463C120.544 84.0463 123.169 84.7526 125.555 86.1709C126.773 86.8939 127.858 87.7504 128.814 88.7293H118.72C116.434 88.7293 114.404 89.2076 112.624 90.1586C110.844 91.1153 109.465 92.4223 108.481 94.0852C107.791 95.2532 107.346 96.5213 107.14 97.8839H102.179C102.429 95.7538 103.08 93.7682 104.142 91.9162ZM125.555 113.585C123.169 115.003 120.544 115.709 117.68 115.709C114.815 115.709 112.19 115.003 109.804 113.585C107.418 112.166 105.533 110.253 104.142 107.839C103.097 106.015 102.441 104.057 102.185 101.961H107.14C107.346 103.323 107.791 104.586 108.481 105.759C109.465 107.422 110.844 108.729 112.624 109.686C114.404 110.643 116.434 111.115 118.72 111.115H128.731C127.796 112.061 126.734 112.884 125.555 113.59V113.585Z" fill="#2D2C2C"/>
<path d="M169.955 106.317L166.134 91.6731C165.873 90.6609 165.372 89.86 164.638 89.2649C163.898 88.6698 163.014 88.375 161.968 88.375C160.923 88.375 160.083 88.6698 159.343 89.2649C158.603 89.86 158.108 90.6609 157.847 91.6731L154.082 106.245L149.388 88.7254H143.965L149.649 107.986C150.316 110.355 151.746 111.545 153.943 111.545C155.099 111.545 156.017 111.228 156.696 110.589C157.374 109.955 157.858 109.087 158.147 107.986L161.963 93.2193L165.739 107.986C166.345 110.355 167.78 111.545 170.033 111.545C172.285 111.545 173.631 110.361 174.326 107.986L179.966 88.7254H174.588L169.949 106.323L169.955 106.317Z" fill="#2D2C2C"/>
<path d="M198.866 89.7023C197.031 88.6456 194.967 88.1172 192.687 88.1172C190.407 88.1172 188.382 88.6456 186.547 89.7023C184.711 90.759 183.271 92.1828 182.231 93.9737C181.191 95.7701 180.668 97.7501 180.668 99.9192C180.668 102.088 181.191 104.068 182.231 105.865C183.271 107.656 184.711 109.085 186.547 110.136C188.382 111.193 190.429 111.721 192.687 111.721C194.945 111.721 197.031 111.193 198.866 110.136C200.701 109.079 202.142 107.656 203.182 105.865C204.222 104.074 204.745 102.088 204.745 99.9192C204.745 97.7501 204.222 95.7701 203.182 93.9737C202.142 92.1828 200.701 90.759 198.866 89.7023ZM198.671 103.562C198.093 104.663 197.292 105.531 196.263 106.165C195.234 106.799 194.055 107.122 192.726 107.122C191.397 107.122 190.217 106.805 189.189 106.165C188.16 105.531 187.359 104.669 186.78 103.584C186.202 102.5 185.913 101.276 185.913 99.9192C185.913 98.5621 186.202 97.3719 186.78 96.2763C187.359 95.175 188.16 94.3074 189.189 93.6734C190.212 93.0393 191.391 92.7167 192.726 92.7167C194.061 92.7167 195.234 93.0338 196.263 93.6734C197.286 94.3074 198.093 95.1695 198.671 96.254C199.25 97.3385 199.539 98.5621 199.539 99.9192C199.539 101.276 199.25 102.466 198.671 103.562Z" fill="#2D2C2C"/>
<path d="M215.07 90.0014C214.03 90.7801 213.279 91.809 212.812 93.0937V88.7222H207.695V111.108H212.857V101.13C212.857 98.4719 213.485 96.5531 214.742 95.3852C215.999 94.2116 217.801 93.6165 220.142 93.5832H220.27V88.4219H220.098C218.162 88.4219 216.483 88.9502 215.065 90.007L215.07 90.0014Z" fill="#2D2C2C"/>
<path d="M229.273 105.967C228.795 105.405 228.556 104.527 228.556 103.342V80.1328H223.395V103.993C223.395 106.479 224.045 108.309 225.347 109.482C226.648 110.656 228.617 111.24 231.248 111.24H231.771V106.857C230.586 106.829 229.752 106.534 229.273 105.967Z" fill="#2D2C2C"/>
<path d="M251.159 80.1328V91.5232C250.675 90.8392 250.047 90.2274 249.274 89.699C247.728 88.6423 245.898 88.1139 243.785 88.1139C241.56 88.1139 239.585 88.62 237.861 89.6323C236.143 90.6445 234.802 92.0572 233.851 93.8592C232.895 95.6667 232.422 97.6856 232.422 99.9103C232.422 102.135 232.889 104.193 233.835 105.984C234.774 107.78 236.104 109.182 237.828 110.194C239.546 111.206 241.538 111.712 243.79 111.712C245.18 111.712 246.465 111.473 247.65 110.995C248.835 110.517 249.819 109.838 250.598 108.954C250.809 108.72 250.993 108.475 251.159 108.225V111.101H256.321V80.1328H251.159ZM250.42 103.626C249.841 104.738 249.029 105.617 247.989 106.251C246.949 106.885 245.748 107.207 244.391 107.207C243.034 107.207 241.843 106.89 240.831 106.251C239.819 105.617 239.035 104.738 238.49 103.626C237.939 102.513 237.667 101.279 237.667 99.9159C237.667 98.5533 237.939 97.3186 238.49 96.2062C239.04 95.0939 239.819 94.2207 240.831 93.5811C241.843 92.9471 243.028 92.6245 244.391 92.6245C245.753 92.6245 246.949 92.9415 247.989 93.5811C249.029 94.2151 249.841 95.0939 250.42 96.2062C250.998 97.3186 251.287 98.5588 251.287 99.9159C251.287 101.273 250.998 102.513 250.42 103.626Z" fill="#2D2C2C"/>
</g>
<defs>
<clipPath id="clip0_22933_10731">
<rect width="158.643" height="40" fill="white" transform="translate(97.6797 79.875)"/>
</clipPath>
</defs>
</svg>
